<?xml version="1.0" standalone="no"?>
<!DOCTYPE svg PUBLIC "-//W3C//DTD SVG 20010904//EN"
 "http://www.w3.org/TR/2001/REC-SVG-20010904/DTD/svg10.dtd">
<svg version="1.0" xmlns="http://www.w3.org/2000/svg"
 width="512.000000pt" height="512.000000pt" viewBox="0 0 512.000000 512.000000"
 preserveAspectRatio="xMidYMid meet">

<g transform="translate(0.000000,512.000000) scale(0.100000,-0.100000)"
fill="#840dd4" stroke="none">
<path d="M2265 4136 c-263 -51 -470 -245 -536 -504 -10 -41 -19 -101 -19 -132
l0 -57 -87 4 c-103 6 -187 -12 -274 -58 -109 -58 -217 -187 -253 -303 -20 -63
-19 -63 -125 -46 -92 16 -167 53 -350 178 -144 98 -169 112 -205 112 -43 0
-76 -20 -94 -55 -27 -56 -43 -293 -31 -469 33 -508 250 -948 572 -1165 144
-97 329 -170 474 -187 l58 -6 39 -79 c45 -92 146 -207 234 -265 76 -51 208
-100 324 -120 189 -33 416 2 598 93 80 39 110 62 187 139 l92 92 123 -62 c332
-167 720 -180 1022 -32 108 53 176 102 269 194 114 112 179 232 213 391 18 88
18 264 -2 358 l-15 75 23 16 c153 106 270 305 314 532 18 89 20 302 4 392 -68
389 -380 716 -835 875 -77 26 -87 27 -275 27 -180 0 -203 -2 -293 -26 -114
-31 -254 -95 -351 -161 l-69 -46 -41 50 c-83 102 -238 199 -373 234 -89 22
-234 27 -318 11z m230 -211 c203 -43 357 -193 410 -400 30 -119 16 -275 -34
-373 -68 -133 -234 -218 -329 -168 -50 26 -83 71 -88 117 -9 75 -14 90 -41
115 -35 32 -101 33 -138 2 -51 -45 -53 -158 -5 -261 28 -60 116 -141 187 -175
51 -24 70 -27 158 -27 97 0 103 1 189 43 158 76 266 208 318 387 31 110 31
299 0 394 l-21 64 26 21 c63 52 198 125 285 154 178 59 365 65 518 16 266 -84
504 -282 611 -509 59 -126 73 -190 73 -345 0 -110 -4 -150 -22 -215 -65 -227
-200 -363 -412 -416 -78 -19 -261 -17 -331 4 -142 43 -241 181 -243 339 0 54
5 76 30 124 81 159 273 201 427 95 59 -40 93 -46 137 -24 40 21 60 54 60 100
0 48 -48 96 -144 143 -207 102 -418 69 -577 -89 -134 -134 -175 -302 -124
-503 52 -201 199 -351 395 -404 90 -24 312 -25 395 -2 32 10 60 16 62 14 2 -1
7 -26 13 -56 23 -122 2 -273 -54 -393 -73 -154 -293 -308 -505 -353 -87 -18
-259 -18 -360 1 -186 36 -326 99 -413 187 -32 32 -70 63 -84 68 -56 22 -110
-13 -151 -96 -97 -199 -308 -315 -573 -316 -293 -1 -477 130 -571 407 -28 82
-33 234 -10 299 29 82 115 145 222 161 104 15 193 -43 224 -148 22 -76 62
-111 120 -104 57 8 95 52 95 112 0 96 -73 221 -165 285 -133 91 -334 95 -496
8 -154 -81 -251 -271 -236 -460 7 -80 6 -80 -92 -47 -161 52 -269 119 -382
236 -215 220 -333 540 -346 932 -5 139 -4 163 8 156 8 -5 47 -31 88 -58 163
-109 279 -147 450 -147 191 1 225 20 246 144 39 223 225 322 445 235 88 -35
116 -34 156 6 23 23 24 30 24 150 0 283 81 447 264 534 104 50 195 60 311 36z"/>
</g>
</svg>
