<?xml version="1.0" standalone="no"?>
<!DOCTYPE svg PUBLIC "-//W3C//DTD SVG 20010904//EN"
 "http://www.w3.org/TR/2001/REC-SVG-20010904/DTD/svg10.dtd">
<svg version="1.0" xmlns="http://www.w3.org/2000/svg"
 width="512.000000pt" height="512.000000pt" viewBox="0 0 512.000000 512.000000"
 preserveAspectRatio="xMidYMid meet">

<g transform="translate(0.000000,512.000000) scale(0.100000,-0.100000)"
fill="#840dd4" stroke="none">
<path d="M955 5037 c-22 -8 -164 -85 -315 -172 -306 -176 -353 -214 -389 -309
-23 -62 -27 -139 -10 -201 11 -39 157 -302 188 -339 27 -31 57 -37 102 -20 22
9 41 15 43 13 2 -2 88 -281 191 -619 103 -338 191 -622 196 -631 4 -9 23 -22
40 -29 27 -11 36 -11 58 1 14 8 32 26 40 40 13 24 2 67 -184 677 -109 359
-196 654 -194 656 9 8 528 306 533 306 2 0 154 -163 338 -362 214 -233 332
-368 331 -380 -2 -10 -32 -144 -68 -298 -36 -154 -65 -292 -65 -306 0 -30 41
-74 69 -74 29 0 69 20 77 39 4 9 75 309 159 666 l151 650 314 0 314 0 151
-650 c84 -357 155 -657 159 -666 8 -19 48 -39 77 -39 28 0 69 44 69 74 0 21
-118 547 -136 607 -3 11 105 134 331 378 185 198 338 361 341 361 5 0 525
-299 533 -306 2 -2 -85 -297 -194 -656 -186 -610 -197 -653 -184 -677 8 -14
26 -32 40 -40 22 -12 31 -12 58 -1 17 7 36 20 40 29 5 9 93 293 196 631 103
338 189 617 191 619 2 2 21 -4 43 -13 45 -17 75 -11 102 20 29 35 168 283 184
329 36 107 7 233 -74 315 -57 57 -580 362 -654 381 -104 25 -230 -13 -304 -94
-51 -56 -203 -326 -203 -361 0 -26 26 -59 63 -81 15 -9 -23 -54 -263 -312
-155 -167 -285 -303 -289 -303 -4 0 -29 93 -55 208 -26 114 -50 217 -53 230
-5 20 -1 22 30 22 24 0 46 8 64 24 l28 24 0 204 c0 198 -1 204 -26 258 -33 70
-89 126 -159 159 l-55 26 -365 0 -365 0 -55 -26 c-70 -33 -126 -89 -159 -159
-25 -54 -26 -60 -26 -258 l0 -204 28 -24 c18 -15 41 -24 63 -24 34 0 35 -1 29
-32 -23 -121 -102 -433 -109 -431 -4 0 -134 138 -288 305 -240 261 -277 304
-262 313 38 21 64 55 64 81 0 35 -152 305 -203 361 -77 84 -220 123 -322 90z
m159 -167 c44 -22 52 -32 123 -155 41 -69 50 -92 40 -101 -17 -15 -745 -434
-754 -434 -5 0 -35 46 -67 103 -92 157 -87 228 19 298 48 32 504 294 525 302
31 11 77 6 114 -13z m1806 -2 c73 -37 85 -69 85 -223 l0 -130 -445 0 -445 0 0
130 c0 154 12 186 85 223 43 21 52 22 360 22 308 0 317 -1 360 -22z m1471
-137 c145 -84 275 -162 287 -174 72 -67 69 -132 -14 -274 -32 -57 -62 -103
-66 -103 -9 0 -739 419 -755 434 -10 9 -1 32 41 104 60 105 88 139 131 158 62
29 96 16 376 -145z"/>
<path d="M2540 3963 c-26 -10 -49 -34 -70 -77 -28 -54 -84 -111 -140 -143 -70
-40 -90 -63 -90 -98 0 -35 20 -58 90 -98 56 -32 112 -89 140 -143 28 -55 54
-77 90 -77 36 0 62 22 90 77 28 54 84 111 140 143 70 40 90 63 90 98 0 35 -20
58 -90 98 -56 32 -112 89 -140 143 -31 62 -72 90 -110 77z m63 -281 l37 -38
-40 -39 -40 -39 -40 39 -40 39 37 38 c20 21 40 38 43 38 3 0 23 -17 43 -38z"/>
<path d="M2417 3176 c-127 -37 -238 -116 -310 -223 -63 -92 -88 -167 -94 -283
-9 -162 37 -287 151 -407 l64 -68 -69 -28 c-130 -53 -269 -158 -377 -282 l-53
-62 -117 -12 c-576 -60 -1011 -178 -1159 -314 -89 -81 -83 -32 -83 -751 l0
-635 26 -20 27 -21 2137 0 2137 0 27 21 26 20 0 635 c0 606 -1 637 -19 672
-41 81 -152 156 -321 216 -148 54 -470 124 -700 153 -64 8 -65 9 -62 37 6 54
-16 84 -89 122 -82 44 -169 132 -217 221 -33 63 -46 73 -90 73 -38 -1 -54 -16
-92 -87 -18 -35 -36 -63 -39 -63 -3 0 -51 23 -105 50 -55 28 -106 50 -114 50
-8 0 15 32 52 70 116 123 162 247 153 410 -6 116 -31 191 -94 283 -58 86 -146
158 -243 199 -67 28 -87 32 -190 34 -76 2 -131 -1 -163 -10z m316 -184 c77
-38 143 -106 184 -190 24 -50 27 -69 28 -157 0 -91 -3 -106 -31 -165 -39 -83
-111 -155 -194 -194 -58 -28 -75 -31 -160 -31 -85 0 -102 3 -160 31 -83 39
-155 111 -194 194 -28 59 -31 74 -31 165 1 88 4 107 28 156 51 105 136 181
240 215 26 9 76 13 133 11 79 -2 100 -7 157 -35z m47 -932 c80 -23 210 -78
210 -90 0 -4 -24 -20 -54 -35 -65 -33 -85 -68 -67 -114 9 -20 34 -40 82 -67
90 -49 168 -127 213 -214 36 -69 49 -80 91 -80 39 0 55 11 77 54 l21 41 18
-50 c33 -95 128 -85 -811 -85 -688 0 -830 2 -830 13 0 27 39 128 80 205 120
231 358 400 623 443 83 13 263 2 347 -21z m547 -282 l-71 -73 -71 72 -72 72
71 73 71 73 71 -72 71 -73 -70 -72z m-1702 -145 c-28 -72 -55 -170 -66 -236
-11 -73 -11 -80 8 -105 l20 -27 967 -3 967 -2 24 24 c14 14 25 34 25 44 0 42
-33 189 -56 250 -13 35 -24 67 -24 69 0 12 393 -45 567 -82 298 -64 533 -165
533 -230 0 -62 -229 -161 -518 -225 -397 -87 -897 -130 -1514 -130 -638 0
-1118 43 -1524 135 -292 66 -504 158 -504 220 0 90 386 220 840 284 266 37
265 37 255 14z m-870 -609 c291 -95 724 -162 1260 -194 222 -14 865 -14 1092
0 636 38 1175 136 1426 258 l57 29 0 -444 0 -443 -2030 0 -2030 0 0 443 0 444
58 -29 c31 -15 106 -44 167 -64z"/>
<path d="M3562 2903 c-7 -3 -24 -27 -38 -55 -35 -69 -91 -127 -163 -167 -100
-57 -103 -118 -6 -174 68 -39 132 -102 161 -159 13 -26 34 -54 46 -62 48 -34
94 -12 132 62 29 57 93 120 161 159 98 57 95 116 -7 174 -71 40 -127 98 -162
167 -14 27 -32 52 -41 56 -19 7 -64 7 -83 -1z m83 -353 l-41 -40 -39 40 -39
40 39 40 39 40 41 -40 40 -40 -40 -40z"/>
<path d="M1489 2718 c-17 -6 -36 -27 -54 -60 -37 -69 -88 -123 -144 -155 -70
-40 -91 -62 -91 -98 0 -39 13 -55 74 -90 72 -41 119 -88 154 -154 56 -104 117
-106 175 -6 39 68 92 121 155 157 29 17 59 40 67 51 33 47 9 95 -61 129 -57
26 -128 97 -159 157 -34 68 -65 86 -116 69z m73 -275 l38 -37 -40 -41 -41 -42
-40 40 -40 40 38 39 c20 21 39 38 42 38 3 0 22 -17 43 -37z"/>
</g>
</svg>
