<?xml version="1.0" standalone="no"?>
<!DOCTYPE svg PUBLIC "-//W3C//DTD SVG 20010904//EN"
 "http://www.w3.org/TR/2001/REC-SVG-20010904/DTD/svg10.dtd">
<svg version="1.0" xmlns="http://www.w3.org/2000/svg"
 width="512.000000pt" height="512.000000pt" viewBox="0 0 512.000000 512.000000"
 preserveAspectRatio="xMidYMid meet">

<g transform="translate(0.000000,512.000000) scale(0.100000,-0.100000)"
fill="#840dd4" stroke="none">
<path d="M1770 5106 c-152 -22 -296 -63 -421 -119 -71 -32 -207 -113 -236
-140 -47 -42 -17 -127 44 -127 14 0 59 20 99 45 140 87 292 147 460 181 123
25 404 25 527 1 187 -38 394 -125 522 -221 l59 -44 1 -84 c1 -67 6 -93 26
-138 51 -108 152 -189 257 -206 40 -6 42 -8 66 -73 59 -155 86 -315 86 -503 0
-123 -24 -353 -40 -371 -3 -4 -30 -3 -58 3 -48 9 -99 4 -169 -16 -22 -6 -23
-4 -23 66 0 70 1 72 46 127 76 94 114 193 114 298 0 59 -27 95 -72 95 -47 0
-69 -29 -78 -102 -16 -131 -87 -234 -199 -287 -55 -26 -60 -26 -296 -29 -224
-2 -242 -1 -272 17 -17 11 -37 29 -43 41 -9 17 -7 22 15 30 15 6 32 10 39 10
21 0 129 69 169 108 88 85 138 205 138 332 0 43 -5 98 -11 121 -17 63 -67 157
-89 169 -51 27 -111 -5 -111 -59 0 -16 12 -52 27 -80 14 -28 24 -54 21 -56 -3
-3 -179 -4 -391 -3 l-386 3 29 58 c36 70 37 91 5 122 -64 65 -138 -2 -180
-162 -53 -205 52 -430 247 -528 39 -19 79 -35 89 -35 10 0 20 -4 23 -9 10 -15
-53 -70 -87 -76 -18 -4 -134 -5 -257 -3 -215 3 -227 4 -275 28 -112 55 -185
159 -200 285 -11 95 -67 134 -126 86 -62 -50 1 -290 100 -385 30 -28 31 -34
31 -109 0 -71 -2 -78 -17 -72 -42 16 -121 22 -171 13 -30 -5 -56 -8 -57 -6 -2
2 -12 51 -22 108 -23 140 -23 388 1 525 35 197 105 368 221 539 50 76 53 105
13 139 -27 22 -59 22 -90 -2 -56 -45 -176 -255 -226 -396 -96 -274 -115 -608
-52 -917 l19 -92 -31 -64 c-26 -52 -32 -77 -32 -131 -1 -158 90 -273 250 -316
5 -2 49 -61 96 -131 47 -71 118 -163 157 -205 39 -42 75 -89 81 -104 28 -73
-3 -177 -63 -214 -60 -37 -66 -101 -13 -136 33 -22 77 -8 134 40 40 35 92 123
92 157 0 10 2 18 4 18 3 0 29 -25 58 -57 56 -59 177 -154 241 -188 28 -15 37
-26 37 -45 0 -23 -7 -28 -57 -44 -32 -10 -107 -42 -168 -71 -326 -157 -575
-442 -690 -788 -56 -170 -65 -253 -65 -588 l0 -298 26 -20 c15 -12 33 -21 40
-21 23 0 63 22 71 39 4 9 10 162 14 341 5 307 7 330 31 420 28 104 88 251 117
289 l18 23 41 -21 c45 -23 50 -32 28 -50 -46 -38 -102 -242 -112 -408 -11
-183 42 -418 116 -511 46 -59 134 -107 214 -117 81 -10 141 12 325 123 163 98
165 99 198 86 49 -21 369 -19 422 2 l39 15 157 -96 c196 -120 221 -130 310
-129 86 0 152 27 213 87 56 54 78 98 108 215 20 80 22 98 11 120 -15 33 -57
49 -94 36 -29 -10 -36 -24 -73 -151 -12 -44 -32 -86 -50 -106 -33 -39 -97 -61
-143 -52 -18 4 -101 47 -184 97 -139 82 -152 92 -142 110 6 11 16 17 23 15 7
-3 38 -8 69 -12 44 -6 62 -4 81 9 32 20 41 50 26 86 -13 31 -38 43 -122 60
-51 10 -58 14 -58 35 0 22 7 24 128 46 138 25 172 44 172 94 0 30 -41 75 -68
75 -18 0 -151 -23 -208 -35 -17 -4 -23 2 -32 34 -7 21 -12 43 -12 49 0 6 69
52 153 102 150 90 153 92 208 88 63 -5 110 -32 135 -80 9 -17 26 -73 39 -125
13 -52 32 -104 41 -114 25 -27 75 -25 104 6 20 21 22 30 16 76 -10 76 -51 198
-85 250 l-29 46 38 22 c21 11 42 21 47 21 17 0 71 -111 108 -223 53 -159 65
-260 65 -570 l0 -268 25 -24 c31 -32 69 -32 101 0 l26 26 -5 317 c-4 270 -7
330 -24 407 -109 484 -445 861 -900 1010 -47 15 -53 20 -53 44 0 24 10 34 63
65 35 21 100 69 145 107 l81 69 26 -49 c56 -101 172 -156 216 -102 33 40 24
67 -41 130 -41 39 -60 66 -60 82 0 13 -3 34 -6 46 -5 19 8 38 72 104 l79 80
12 -97 c38 -303 205 -562 463 -715 197 -116 457 -160 656 -109 136 35 236 92
340 195 76 75 98 105 137 184 26 51 47 104 47 117 0 71 -58 135 -142 154 -75
18 -119 42 -162 90 -74 82 -71 53 -74 661 -3 530 -3 547 -23 568 -26 28 -79
28 -105 0 -18 -20 -19 -46 -22 -533 -2 -306 1 -537 7 -576 27 -169 154 -308
324 -351 l47 -11 -32 -62 c-68 -130 -226 -252 -378 -291 -89 -23 -266 -16
-365 15 -283 89 -493 315 -555 598 -14 63 -20 126 -20 229 l0 142 36 60 c26
43 44 63 63 68 98 23 196 114 226 208 25 81 17 175 -20 244 l-29 52 18 92 c27
150 35 234 36 379 0 193 -26 367 -80 522 -25 74 -25 83 1 91 23 8 25 6 101
-104 58 -85 124 -220 163 -336 39 -114 79 -141 139 -94 34 27 34 56 -5 166
-57 162 -136 306 -247 453 -18 25 -18 26 2 62 l22 37 76 -52 c115 -77 179
-137 252 -234 99 -132 180 -316 201 -456 14 -92 82 -129 135 -72 23 25 24 27
11 103 -56 339 -282 656 -594 832 -41 23 -59 39 -63 58 -22 100 -64 174 -126
223 -143 114 -337 104 -473 -22 l-30 -28 -75 50 c-151 103 -341 181 -538 220
-137 27 -378 34 -512 15z m1517 -339 c48 -33 81 -89 89 -151 9 -62 -31 -146
-88 -183 -83 -56 -214 -37 -270 38 -53 71 -60 137 -24 215 38 81 97 115 192
111 48 -2 71 -9 101 -30z m-917 -858 c-35 -120 -146 -208 -283 -224 -78 -10
-101 -38 -94 -111 11 -106 96 -215 194 -248 65 -22 492 -23 573 -1 30 8 57 15
58 15 2 0 2 -123 -1 -272 -5 -289 -13 -348 -67 -508 -88 -256 -277 -481 -482
-575 -466 -213 -964 124 -1099 743 -17 80 -22 143 -26 356 l-5 259 23 -7 c85
-23 138 -27 361 -24 228 3 246 4 284 25 67 36 101 70 133 135 34 67 42 149 18
182 -8 11 -41 23 -92 33 -93 17 -122 31 -183 86 -41 38 -92 123 -92 155 0 9
85 12 394 12 l395 0 -9 -31z m-1475 -750 c22 -6 52 -23 68 -37 26 -25 27 -30
27 -123 l0 -98 -36 -27 c-50 -39 -124 -43 -179 -12 -56 32 -90 101 -80 164 8
56 53 109 110 129 49 17 42 17 90 4z m2296 -15 c62 -32 97 -136 69 -204 -41
-100 -174 -130 -255 -58 l-35 30 0 92 c0 85 2 94 24 115 52 49 132 59 197 25z
m-2163 -465 c7 -29 11 -54 9 -56 -5 -5 -57 74 -57 86 0 8 15 18 31 20 3 1 11
-22 17 -50z m1946 2 c-9 -15 -24 -38 -35 -52 l-18 -24 5 25 c23 98 24 101 45
90 19 -10 19 -12 3 -39z m-993 -911 c58 0 154 12 202 26 16 5 17 -5 17 -120 0
-113 2 -128 20 -146 12 -12 33 -20 54 -20 45 0 76 37 76 92 0 38 1 40 25 34
14 -4 47 -16 75 -29 l50 -22 -56 -70 c-31 -38 -78 -103 -105 -142 -27 -40 -52
-73 -56 -73 -3 0 -41 34 -85 76 -92 87 -141 113 -216 114 -75 0 -113 -19 -213
-111 -49 -45 -91 -80 -92 -78 -2 2 -25 36 -52 74 -26 39 -73 101 -103 139 -43
53 -52 70 -41 77 18 12 117 49 129 49 6 0 10 -20 10 -45 0 -56 25 -85 73 -85
60 0 72 24 75 164 l4 122 71 -13 c40 -7 102 -12 138 -13z m-600 -318 c63 -78
189 -257 256 -367 31 -49 63 -101 72 -114 19 -29 29 -34 -168 83 -161 96 -187
106 -284 106 -55 0 -78 5 -125 29 -104 53 -102 47 -30 126 55 60 213 195 228
195 3 0 26 -26 51 -58z m1329 4 c64 -47 210 -192 210 -209 0 -7 -33 -30 -73
-51 -63 -34 -79 -39 -133 -37 -95 3 -141 -14 -306 -114 -84 -52 -154 -92 -156
-90 -2 2 20 41 49 87 163 260 321 474 342 461 7 -4 37 -25 67 -47z m-607 -204
c48 -48 87 -91 87 -95 0 -5 -24 -49 -52 -97 l-53 -90 -101 0 -102 0 -57 97
-58 96 90 89 c122 119 128 119 246 0z m-637 -327 c71 -43 134 -83 141 -89 9
-9 9 -22 -4 -58 -8 -27 -20 -48 -27 -48 -6 0 -58 9 -116 20 -58 11 -113 20
-123 20 -26 0 -67 -45 -67 -73 0 -51 28 -67 155 -93 65 -13 120 -26 122 -27 2
-2 -26 -16 -62 -32 -99 -42 -126 -86 -84 -139 26 -33 66 -34 136 -2 l51 24 15
-46 c9 -26 15 -47 14 -48 -30 -24 -273 -164 -300 -173 -69 -23 -153 13 -187
80 -27 53 -58 185 -66 283 -12 155 37 385 93 438 45 41 65 49 124 45 49 -3 71
-12 185 -82z m678 -120 c58 -28 66 -55 66 -220 0 -228 -7 -235 -236 -235 -230
0 -237 8 -232 248 3 144 4 152 28 177 37 40 53 44 203 44 105 1 147 -3 171
-14z"/>
<path d="M1511 3074 c-17 -22 -21 -41 -21 -109 0 -68 4 -87 21 -109 27 -34 77
-36 107 -3 19 20 22 35 22 113 0 82 -2 93 -23 112 -33 31 -80 29 -106 -4z"/>
<path d="M2357 3088 c-52 -40 -49 -220 3 -248 30 -16 68 -12 90 10 17 17 20
33 20 115 0 82 -3 98 -20 115 -23 23 -68 26 -93 8z"/>
<path d="M1724 2545 c-34 -52 7 -174 83 -247 101 -97 236 -102 341 -12 44 37
97 134 107 194 12 67 -54 113 -115 80 -10 -5 -26 -33 -36 -62 -9 -29 -23 -62
-30 -72 -20 -30 -66 -56 -98 -56 -38 0 -102 66 -112 115 -10 56 -39 85 -84 85
-31 0 -43 -5 -56 -25z"/>
<path d="M3252 2410 c-27 -25 -28 -60 -6 -149 64 -260 261 -454 528 -521 113
-28 159 -27 185 6 12 15 21 34 21 44 0 31 -39 69 -78 76 -279 47 -451 196
-514 446 -11 46 -27 91 -36 101 -21 23 -73 22 -100 -3z"/>
</g>
</svg>
