<?xml version="1.0" standalone="no"?>
<!DOCTYPE svg PUBLIC "-//W3C//DTD SVG 20010904//EN"
 "http://www.w3.org/TR/2001/REC-SVG-20010904/DTD/svg10.dtd">
<svg version="1.0" xmlns="http://www.w3.org/2000/svg"
 width="512.000000pt" height="512.000000pt" viewBox="0 0 512.000000 512.000000"
 preserveAspectRatio="xMidYMid meet">

<g transform="translate(0.000000,512.000000) scale(0.100000,-0.100000)"
fill="#840dd4" stroke="none">
<path d="M1948 5105 c-132 -33 -253 -121 -330 -239 -95 -146 -107 -349 -31
-512 40 -88 86 -137 396 -425 l301 -279 25 23 c195 176 586 546 609 574 73 93
112 209 112 332 0 152 -44 262 -146 371 -141 149 -359 207 -551 144 -48 -15
-54 -15 -100 0 -67 24 -214 29 -285 11z m201 -300 c23 -8 62 -29 88 -46 41
-28 48 -30 67 -19 121 77 116 75 190 75 144 -1 236 -92 236 -234 0 -95 -29
-136 -228 -322 -95 -89 -183 -170 -196 -180 l-25 -19 -193 180 c-221 206 -250
246 -250 338 0 100 48 177 137 218 58 27 115 30 174 9z"/>
<path d="M3122 3919 c-23 -4 -70 -20 -105 -35 -56 -25 -99 -64 -462 -426 -220
-219 -403 -398 -406 -398 -3 0 -11 19 -18 42 -20 67 -181 419 -212 464 -100
146 -287 230 -459 205 -89 -13 -195 -61 -259 -117 -97 -84 -161 -227 -161
-358 0 -98 14 -143 114 -365 114 -253 129 -307 129 -486 0 -179 -21 -265 -93
-375 -103 -158 -149 -298 -157 -485 -7 -145 6 -236 51 -368 64 -187 91 -222
486 -620 195 -197 384 -380 420 -407 356 -264 843 -250 1188 34 37 30 238 227
448 438 358 359 383 388 419 460 86 177 48 388 -96 527 -55 53 -168 110 -234
117 l-51 6 -11 61 c-17 85 -64 175 -125 236 -61 61 -171 119 -244 127 l-51 6
-11 62 c-23 122 -100 235 -207 303 l-45 28 304 305 c321 322 339 345 371 467
51 195 -44 409 -223 506 -87 47 -204 65 -300 46z m165 -319 c38 -22 73 -86 73
-130 0 -17 -7 -45 -16 -63 -9 -18 -277 -293 -595 -612 l-579 -580 105 -105
105 -104 158 156 c107 106 168 159 188 163 16 4 34 8 41 10 25 8 89 -19 119
-49 36 -36 50 -86 39 -143 -5 -31 -34 -65 -166 -198 l-159 -161 105 -104 105
-105 148 146 c81 81 158 154 172 163 31 20 111 21 150 1 60 -31 89 -98 75
-172 -6 -32 -33 -65 -166 -198 l-159 -161 103 -102 c56 -56 107 -102 112 -102
6 0 80 70 165 155 169 170 195 186 268 165 44 -12 69 -30 94 -67 22 -34 24
-113 4 -151 -8 -15 -198 -210 -423 -433 -400 -397 -410 -406 -493 -447 -238
-115 -495 -89 -705 71 -33 25 -202 189 -376 364 -336 338 -371 381 -421 523
-19 56 -23 85 -23 205 0 127 3 147 27 213 15 41 41 99 60 130 24 42 251 276
853 881 451 453 834 832 850 842 40 26 120 25 162 -1z m-1691 -145 c27 -14 56
-35 65 -48 20 -28 172 -358 189 -411 18 -57 8 -162 -23 -230 -18 -39 -56 -87
-129 -162 -109 -112 -116 -114 -117 -36 -1 46 -29 175 -53 247 -11 33 -57 141
-103 240 -45 99 -86 195 -89 212 -17 74 41 170 119 198 57 20 85 18 141 -10z"/>
</g>
</svg>
