<?xml version="1.0" standalone="no"?>
<!DOCTYPE svg PUBLIC "-//W3C//DTD SVG 20010904//EN"
 "http://www.w3.org/TR/2001/REC-SVG-20010904/DTD/svg10.dtd">
<svg version="1.0" xmlns="http://www.w3.org/2000/svg"
 width="512.000000pt" height="512.000000pt" viewBox="0 0 512.000000 512.000000"
 preserveAspectRatio="xMidYMid meet">

<g transform="translate(0.000000,512.000000) scale(0.100000,-0.100000)"
fill="#840dd4" stroke="none">
<path d="M2460 4937 c-36 -13 -474 -249 -975 -524 -980 -539 -976 -537 -1038
-651 -57 -105 -57 -93 -57 -1242 0 -1150 0 -1136 57 -1243 62 -115 57 -112
1049 -657 505 -277 943 -513 973 -523 63 -21 176 -25 241 -7 64 17 88 30 685
372 297 171 675 387 839 482 187 107 319 189 353 219 65 60 120 165 133 257
13 90 13 2116 0 2200 -15 94 -69 198 -134 257 -37 33 -312 196 -912 540 -472
271 -881 502 -909 514 -77 35 -218 37 -305 6z m77 -239 c-4 -73 -14 -347 -23
-608 -9 -261 -20 -479 -24 -483 -4 -5 -90 -1 -191 7 -101 9 -242 20 -314 26
-351 28 -660 52 -960 75 -181 14 -352 28 -378 31 l-49 6 26 27 c15 15 88 62
164 103 597 330 1665 914 1697 929 22 10 44 19 49 19 5 0 6 -56 3 -132z m1068
-390 c479 -275 881 -510 895 -523 14 -13 33 -38 43 -55 l18 -30 -33 0 c-18 0
-451 -23 -962 -51 -510 -28 -931 -47 -935 -42 -4 4 3 269 15 588 12 319 23
592 23 607 1 26 2 27 34 16 17 -6 424 -236 902 -510z m-2045 -764 c459 -36
835 -66 837 -68 4 -4 -1175 -1710 -1184 -1713 -7 -2 -584 1829 -583 1850 0 4
21 5 48 2 26 -3 423 -35 882 -71z m2927 14 c-2 -7 -145 -420 -316 -917 -171
-498 -314 -907 -316 -910 -3 -2 -7 -2 -9 0 -11 13 -1119 1724 -1123 1735 -4
11 10 14 68 15 41 0 416 20 834 43 889 51 869 50 862 34z m-3663 -1003 c244
-781 292 -942 281 -954 -13 -13 -534 -201 -559 -201 -7 0 -16 14 -20 31 -7 36
-8 2075 -1 2068 2 -3 137 -428 299 -944z m2355 -31 c337 -520 611 -947 609
-949 -5 -5 -2511 24 -2516 29 -5 5 1278 1866 1286 1866 4 0 283 -426 621 -946z
m1419 -289 c-3 -828 -4 -848 -34 -883 -6 -7 -613 211 -617 222 -4 9 285 858
580 1706 l68 195 3 -205 c1 -113 1 -578 0 -1035z m-2863 -1297 c292 -293 557
-562 590 -597 l60 -64 -45 26 c-25 14 -342 188 -705 387 -902 496 -976 537
-1008 564 l-29 23 104 37 c56 20 177 63 268 96 91 32 181 59 200 59 33 1 63
-27 565 -531z m1175 516 c388 -4 719 -9 737 -13 l32 -6 -535 -590 c-294 -324
-538 -590 -542 -590 -4 1 -279 275 -612 609 l-605 608 410 -6 c226 -3 727 -9
1115 -12z m1262 -105 c145 -51 274 -96 287 -101 24 -9 24 -9 5 -22 -11 -8
-386 -224 -834 -481 -448 -257 -819 -470 -825 -473 -16 -10 36 49 555 622 423
467 499 546 522 546 15 0 146 -41 290 -91z"/>
</g>
</svg>
