<?xml version="1.0" standalone="no"?>
<!DOCTYPE svg PUBLIC "-//W3C//DTD SVG 20010904//EN"
 "http://www.w3.org/TR/2001/REC-SVG-20010904/DTD/svg10.dtd">
<svg version="1.0" xmlns="http://www.w3.org/2000/svg"
 width="512.000000pt" height="512.000000pt" viewBox="0 0 512.000000 512.000000"
 preserveAspectRatio="xMidYMid meet">

<g transform="translate(0.000000,512.000000) scale(0.100000,-0.100000)"
fill="#840dd4" stroke="none">
<path d="M3345 4906 c-141 -46 -277 -105 -297 -128 -39 -44 -8 -118 49 -118
14 0 80 22 147 49 164 67 228 84 290 79 44 -4 108 -35 459 -227 224 -123 438
-234 476 -247 110 -38 216 -49 349 -35 104 12 115 11 133 -5 27 -25 24 -58
-10 -87 -73 -61 -312 -163 -431 -182 -60 -10 -75 -19 -89 -53 -15 -37 0 -78
34 -94 33 -15 108 -1 252 47 117 39 200 79 295 141 53 35 72 55 92 96 44 89
27 180 -47 245 -58 51 -92 57 -232 43 -139 -14 -218 -6 -317 34 -32 13 -230
117 -440 232 -211 115 -405 217 -433 226 -79 27 -164 23 -280 -16z"/>
<path d="M2754 4619 c-87 -43 -304 -221 -436 -356 -56 -57 -96 -88 -152 -116
-94 -48 -166 -123 -215 -227 -36 -75 -36 -76 -36 -211 l0 -136 -56 -61 c-101
-108 -194 -268 -243 -414 -14 -40 -39 -140 -56 -222 -28 -138 -29 -151 -15
-173 31 -47 100 -50 124 -4 6 11 25 84 42 163 36 165 67 257 116 348 81 148
215 295 313 345 58 29 150 55 198 55 40 0 82 38 82 75 0 15 -11 37 -26 52 -24
24 -30 25 -96 19 -60 -5 -155 -31 -220 -60 -16 -7 -18 -2 -18 43 0 101 65 214
153 266 73 42 149 56 345 63 177 7 184 8 203 31 23 28 24 68 3 96 -13 18 -30
21 -145 25 l-130 5 91 77 c50 43 134 108 186 145 61 44 97 76 101 92 9 37 -9
73 -43 87 -27 11 -36 10 -70 -7z"/>
<path d="M3295 4175 c-41 -40 -33 -69 36 -133 83 -77 103 -118 101 -208 -2
-91 -30 -167 -84 -228 l-40 -47 -16 23 c-26 40 -96 109 -134 134 -59 38 -106
27 -126 -27 -9 -24 3 -79 18 -79 16 0 102 -85 125 -125 21 -34 54 -183 175
-791 83 -412 150 -750 150 -751 0 -2 -108 -3 -240 -3 l-240 0 0 23 c0 32 -35
84 -72 107 -31 19 -51 20 -418 20 -354 0 -388 -1 -419 -18 -37 -20 -71 -72
-71 -109 l0 -23 -260 0 c-143 0 -260 4 -260 8 0 5 20 104 45 221 25 116 45
221 45 232 0 28 -44 69 -75 69 -54 0 -67 -29 -113 -255 -59 -288 -56 -278 -92
-294 -17 -7 -43 -31 -58 -54 -25 -38 -27 -48 -30 -179 -3 -108 -7 -138 -17
-138 -43 0 -262 -34 -327 -51 -279 -71 -505 -203 -704 -411 -99 -104 -194
-237 -194 -272 0 -31 34 -64 72 -70 18 -3 105 -7 193 -10 339 -11 683 -88 907
-203 111 -57 167 -116 230 -246 39 -78 53 -98 74 -103 52 -13 75 5 120 97 l42
85 130 -32 c189 -48 395 -74 628 -81 110 -3 213 -3 228 1 18 4 32 18 40 38 17
39 11 63 -22 88 -22 18 -40 20 -161 20 -168 0 -340 14 -491 40 -115 20 -218
44 -227 54 -3 3 39 27 93 54 105 51 124 72 110 125 -5 21 -28 37 -115 82 -135
69 -181 116 -250 254 -54 106 -71 121 -126 107 -19 -5 -35 -27 -72 -104 -58
-119 -135 -201 -234 -250 l-66 -32 -59 20 c-202 70 -453 117 -733 138 l-95 7
83 88 c231 243 499 368 883 411 200 23 2496 23 2693 1 250 -29 384 -66 549
-153 125 -66 225 -142 332 -255 l88 -92 -45 -3 c-134 -8 -359 -36 -465 -57
-174 -35 -323 -83 -593 -189 -346 -137 -496 -181 -736 -216 -96 -14 -110 -21
-123 -57 -21 -63 28 -108 105 -98 265 36 456 91 828 238 223 88 315 119 445
152 187 46 419 75 611 75 127 0 163 10 180 51 10 25 9 36 -3 62 -32 64 -139
195 -240 292 -249 240 -525 360 -920 400 l-68 7 0 109 c0 61 -5 131 -11 156
-15 59 -66 111 -118 119 l-39 6 -145 731 -144 731 61 60 c90 90 146 207 158
336 l3 25 291 5 c269 5 294 6 313 24 29 26 28 76 -2 104 -23 22 -29 22 -323
22 l-299 0 -24 43 c-39 68 -78 113 -128 146 -56 37 -86 39 -118 6z m-425
-2425 l0 -190 -340 0 -340 0 0 54 0 55 156 3 156 3 24 28 c29 34 30 56 3 91
l-20 26 -160 0 -159 0 0 60 0 60 340 0 340 0 0 -190z m-830 -75 l0 -115 -325
0 -325 0 0 108 c0 60 3 112 7 115 3 4 150 7 325 7 l318 0 0 -115z m1628 -2 l3
-113 -326 0 -325 0 0 115 0 115 323 -2 322 -3 3 -112z m-2050 -945 c34 -31 71
-59 82 -63 26 -8 25 -19 -3 -32 -36 -17 -133 -109 -165 -159 l-30 -45 -30 43
c-33 48 -125 138 -160 157 -30 16 -28 24 16 53 48 33 106 92 144 146 l30 43
27 -43 c15 -24 55 -69 89 -100z"/>
<path d="M4194 3589 c-11 -6 -40 -52 -67 -107 -77 -161 -149 -231 -309 -305
-69 -32 -89 -46 -99 -70 -20 -48 2 -75 107 -127 169 -84 220 -136 304 -304 79
-158 122 -156 205 9 82 165 127 209 300 295 154 77 154 123 -1 200 -164 82
-236 155 -309 314 -44 96 -77 121 -131 95z m81 -310 c43 -66 102 -123 171
-166 24 -16 44 -30 44 -33 0 -3 -17 -14 -37 -25 -49 -26 -173 -150 -198 -197
-11 -21 -22 -38 -25 -37 -3 0 -28 32 -55 72 -44 63 -121 134 -192 176 -17 11
-17 11 0 22 71 42 148 113 192 176 27 40 52 72 55 72 3 0 23 -27 45 -60z"/>
<path d="M812 2523 c-7 -3 -30 -39 -51 -81 -49 -96 -89 -136 -187 -187 -129
-66 -128 -116 4 -184 97 -51 134 -89 181 -183 62 -126 118 -127 182 -4 53 103
89 139 176 183 135 67 139 122 14 185 -95 47 -144 96 -187 186 -20 39 -44 77
-54 82 -20 10 -56 12 -78 3z m130 -331 l33 -25 -62 -62 -62 -62 -60 59 -60 60
62 62 62 62 27 -34 c15 -19 42 -46 60 -60z"/>
</g>
</svg>
