<?xml version="1.0" standalone="no"?>
<!DOCTYPE svg PUBLIC "-//W3C//DTD SVG 20010904//EN"
 "http://www.w3.org/TR/2001/REC-SVG-20010904/DTD/svg10.dtd">
<svg version="1.0" xmlns="http://www.w3.org/2000/svg"
 width="512.000000pt" height="512.000000pt" viewBox="0 0 512.000000 512.000000"
 preserveAspectRatio="xMidYMid meet">

<g transform="translate(0.000000,512.000000) scale(0.100000,-0.100000)"
fill="#840dd4" stroke="none">
<path d="M1460 4926 c-294 -79 -561 -151 -593 -160 -70 -20 -126 -68 -159
-134 l-23 -47 -3 -526 -3 -527 -72 26 c-145 50 -315 26 -436 -63 -187 -138
-211 -383 -52 -544 138 -141 357 -178 537 -91 92 45 148 99 191 188 l38 76 3
475 3 476 546 145 c300 80 551 146 559 148 12 3 14 -27 14 -168 0 -160 -1
-172 -17 -165 -124 51 -209 62 -310 41 -140 -29 -245 -103 -308 -217 -28 -50
-30 -61 -30 -159 0 -92 3 -111 24 -150 36 -67 78 -116 135 -155 226 -155 554
-80 668 153 l33 67 0 666 0 665 -28 43 c-32 48 -92 81 -147 80 -19 0 -276 -65
-570 -143z m550 -194 c0 -110 -3 -131 -17 -145 -10 -8 -241 -75 -513 -147
-272 -72 -516 -138 -542 -145 l-48 -14 0 132 c0 73 4 138 8 144 6 10 1057 299
1100 302 9 1 12 -31 12 -127z m-111 -878 c174 -87 126 -295 -77 -334 -142 -26
-282 63 -282 179 0 54 24 98 72 134 47 35 83 45 164 46 57 1 80 -4 123 -25z
m-1339 -495 c81 -37 120 -88 120 -159 0 -181 -283 -253 -418 -106 -24 26 -42
57 -46 79 -13 72 50 162 136 194 54 19 157 15 208 -8z"/>
<path d="M3820 5064 c-153 -23 -257 -53 -360 -102 -71 -34 -80 -35 -185 -36
-97 -1 -117 -4 -167 -28 -139 -65 -223 -231 -190 -376 9 -38 7 -48 -18 -95
-98 -182 -141 -435 -117 -682 l8 -80 -1126 -1184 c-619 -651 -1136 -1203
-1149 -1225 -39 -67 -59 -151 -53 -225 8 -108 39 -173 124 -262 l75 -78 -12
-38 c-68 -210 -250 -355 -490 -393 -99 -15 -128 -27 -145 -61 -29 -55 -8 -117
46 -139 65 -27 295 28 429 102 129 72 246 192 305 312 l27 54 49 -37 c119 -90
276 -103 411 -35 52 26 79 51 605 552 399 380 402 383 371 449 -17 35 -77 66
-112 57 -16 -4 -209 -180 -477 -435 -248 -236 -465 -437 -482 -446 -50 -25
-125 -22 -177 9 -25 14 -109 91 -187 170 -117 120 -143 151 -153 188 -14 51
-8 98 17 145 17 32 2161 2295 2174 2295 3 0 16 -24 30 -52 100 -218 330 -447
547 -547 29 -14 51 -28 50 -32 -2 -4 -151 -149 -333 -322 -411 -391 -425 -406
-425 -451 0 -68 71 -119 131 -93 15 7 214 191 444 409 230 219 421 395 425
393 4 -3 54 -9 111 -14 205 -17 419 20 595 103 93 44 96 45 149 34 142 -28
299 55 364 192 23 49 26 68 26 165 1 98 4 115 27 160 14 28 37 84 52 126 238
696 -209 1435 -934 1545 -87 13 -239 17 -300 8z m230 -204 c227 -28 413 -115
572 -268 271 -260 366 -678 236 -1031 -11 -31 -23 -58 -25 -61 -4 -5 -1283
1271 -1283 1281 0 10 150 57 220 68 139 23 171 24 280 11z m-736 -145 c17 -8
352 -336 743 -728 637 -638 712 -716 719 -750 19 -109 -70 -193 -175 -165 -29
8 -169 142 -754 726 -776 775 -750 746 -727 830 22 83 115 124 194 87z m636
-1299 c245 -246 391 -399 385 -405 -18 -16 -122 -50 -205 -65 -94 -18 -246
-21 -339 -6 -409 67 -735 393 -801 803 -20 119 -8 311 24 421 44 148 14 160
294 -113 136 -132 425 -418 642 -635z"/>
<path d="M2765 2899 c-33 -19 -525 -512 -542 -543 -37 -70 31 -157 110 -141
24 5 93 68 290 264 142 141 265 269 274 285 19 36 10 86 -21 115 -27 26 -83
36 -111 20z"/>
<path d="M4139 2232 l-34 -30 -3 -557 c-1 -306 -6 -555 -10 -553 -113 57 -170
81 -227 93 -266 56 -541 -67 -652 -292 -37 -76 -38 -79 -38 -193 0 -115 1
-117 39 -194 151 -306 587 -401 880 -192 74 53 132 123 173 211 l28 60 3 733
c1 406 6 732 11 732 5 0 40 -10 77 -21 188 -58 347 -179 410 -314 23 -48 24
-59 24 -278 0 -148 4 -236 11 -250 32 -63 111 -77 160 -28 l29 29 0 254 c0
239 -2 257 -24 319 -89 252 -420 475 -737 496 -85 6 -86 5 -120 -25z m-324
-1243 c274 -50 377 -320 187 -490 -221 -199 -631 -68 -632 201 0 133 112 251
270 286 71 16 103 16 175 3z"/>
<path d="M2464 1821 c-64 -28 -83 -110 -36 -162 62 -70 172 -21 172 76 0 55
-84 108 -136 86z"/>
</g>
</svg>
